<svg xmlns:xlink="http://www.w3.org/1999/xlink" xmlns="http://www.w3.org/2000/svg" aria-hidden="true" class="global-announcement__icon svg-icon svg-icon--small svg-icon--default svg-icon--icon" width="200"  height="200" ><defs><symbol xmlns="http://www.w3.org/2000/svg" viewBox="0 0 200 200" id="icon-notice-bonus"><path d="M4.9 198.7c-1.3 0-2.6-.5-3.5-1.5-1.3-1.3-1.7-3.2-1.2-4.9l32-99.8c.8-2.6 3.6-4 6.1-3.2 2.6.8 4 3.6 3.2 6.1l-29.2 90.9 94.2-28.2c2.6-.8 5.3.7 6.1 3.3.8 2.6-.7 5.3-3.3 6.1l-103 31c-.5.1-1 .2-1.4.2zM76.9 104.3c-.7 0-1.5-.2-2.2-.5-2.4-1.2-3.4-4.1-2.2-6.5.2-.3 16.4-33.9-.5-50.7-.1-.1-4.1-4.3-8.7-3.9 0 0-3.5.4-4.3 2.7-.3.9-.8 3.3 1.2 4.3 2.4 1.2 3.4 4.1 2.2 6.5-1.2 2.4-4.1 3.4-6.5 2.2-8-4-7.5-12.4-6.1-16.3 2.3-6.6 9.1-8.9 12.7-9.2 9.1-.8 15.7 6.1 16.5 6.8 21.7 21.7 3 60.2 2.2 61.8-.8 1.8-2.5 2.8-4.3 2.8zM157.8 141.1c-3.6 0-7.6-1.1-11.5-4.3-2.1-1.7-2.4-4.8-.6-6.9 1.7-2.1 4.8-2.4 6.9-.6 4.7 3.9 9.5.9 9.5.9 4.5-2.7 5.3-8 5.3-8 1-7.1-4.9-10.2-4.9-10.2-20.9-11.6-60.5 8.8-74.1 17.7-2.3 1.5-5.3.8-6.8-1.4-1.5-2.3-.8-5.3 1.4-6.8 2.2-1.4 53.9-34.8 84-18.1.4.2 11.9 6.3 10 20 0 .3-1.3 10.1-9.9 15.1-1.9 1.3-5.3 2.6-9.3 2.6z" class="st0"></path><path d="M104.3 168.6C92 168.6 73.7 156 59 141.4c-16.6-16.5-27.3-34.2-27.3-45.1 0-4.5 1.8-7.2 3.3-8.7 3.2-3.2 9.8-5.6 23 .7 2.4 1.2 3.4 4.1 2.3 6.5-1.2 2.4-4.1 3.4-6.5 2.3-7.4-3.5-11.1-3.3-11.8-2.6-.2.2-.4.8-.4 1.8 0 6.9 8.4 22.2 24.4 38.2 20.8 20.8 37.8 26.3 40.2 23.9.5-.5 1.4-4.1-3.2-13-1.2-2.4-.3-5.3 2.1-6.6 2.4-1.2 5.3-.3 6.6 2.1 7.2 14.1 4.8 21 1.4 24.4-2.4 2.3-5.4 3.3-8.8 3.3z" class="st0"></path><circle cx="87.1" cy="11" r="9.7" class="st0"></circle><circle cx="157" cy="60.8" r="9.7" class="st0"></circle><circle cx="190.3" cy="25.9" r="9.7" class="st0"></circle><path d="M109.9 84.2c-1.1 0-2.2-.4-3.1-1.1-2.1-1.7-2.4-4.7-.8-6.8.2-.2 15.4-19.9 10.6-52.7-.4-2.7 1.5-5.1 4.1-5.5 2.6-.4 5.1 1.4 5.5 4.1 5.5 37.2-11.9 59.3-12.6 60.2-.8 1.2-2.3 1.8-3.7 1.8z" class="st0"></path></symbol></defs><use xlink:href="#icon-notice-bonus" fill="#32C5FF"></use> </svg>