<svg xmlns="http://www.w3.org/2000/svg" xmlns:xlink="http://www.w3.org/1999/xlink" width="400" height="493"><defs><filter id="e" width="112.8%" height="110.3%" x="-6.4%" y="-2.7%" filterUnits="objectBoundingBox"><feOffset dy="11" in="SourceAlpha" result="shadowOffsetOuter1"/><feGaussianBlur in="shadowOffsetOuter1" result="shadowBlurOuter1" stdDeviation="6"/><feColorMatrix in="shadowBlurOuter1" values="0 0 0 0 0.0745098039 0 0 0 0 0.274509804 0 0 0 0 0.462745098 0 0 0 0.1 0"/></filter><filter id="g" width="112.5%" height="160%" x="-6.3%" y="-25.4%" filterUnits="objectBoundingBox"><feOffset dy="3" in="SourceAlpha" result="shadowOffsetOuter1"/><feGaussianBlur in="shadowOffsetOuter1" result="shadowBlurOuter1" stdDeviation="6"/><feColorMatrix in="shadowBlurOuter1" values="0 0 0 0 0.0745098039 0 0 0 0 0.274509804 0 0 0 0 0.462745098 0 0 0 0.245164991 0"/></filter><filter id="j" width="360%" height="360%" x="-110%" y="-110%" filterUnits="objectBoundingBox"><feOffset dx="1" dy="1" in="SourceAlpha" result="shadowOffsetOuter1"/><feGaussianBlur in="shadowOffsetOuter1" result="shadowBlurOuter1" stdDeviation="2"/><feColorMatrix in="shadowBlurOuter1" values="0 0 0 0 0.105882353 0 0 0 0 0.580392157 0 0 0 0 1 0 0 0 0.5 0"/></filter><filter id="l" width="360%" height="360%" x="-110%" y="-110%" filterUnits="objectBoundingBox"><feOffset dx="1" dy="1" in="SourceAlpha" result="shadowOffsetOuter1"/><feGaussianBlur in="shadowOffsetOuter1" result="shadowBlurOuter1" stdDeviation="2"/><feColorMatrix in="shadowBlurOuter1" values="0 0 0 0 0.105882353 0 0 0 0 0.580392157 0 0 0 0 1 0 0 0 0.5 0"/></filter><path id="a" d="M0 0h400v493H0z"/><path id="h" d="M81.74 65c-9.807 0-29.882-4.763-29.882-31.45C51.858 15.758 43.905 4.575 28 0h311c-15.905 4.575-23.858 15.758-23.858 33.55 0 26.687-20.075 31.45-29.882 31.45z"/><path id="k" d="M2 2h5v5H2z"/><path id="m" d="M165 2h5v5h-5z"/><linearGradient id="c" x1="100%" x2="0%" y1="37.717%" y2="62.283%"><stop offset="0%" stop-color="#37B5FF"/><stop offset="100%" stop-color="#002F5B"/></linearGradient><linearGradient id="d" x1="100%" x2="0%" y1="37.422%" y2="62.578%"><stop offset="0%" stop-color="#37B5FF"/><stop offset="100%" stop-color="#002F5B"/></linearGradient><linearGradient id="i" x1="100%" x2="0%" y1="47.816%" y2="52.184%"><stop offset="0%" stop-color="#25E1FE"/><stop offset="100%" stop-color="#1B91FF"/></linearGradient><rect id="f" width="367" height="455" x="0" y="17" rx="10"/></defs><g fill="none" fill-rule="evenodd"><mask id="b" fill="#fff"><use xlink:href="#a"/></mask><use fill="#D8D8D8" fill-opacity="0" xlink:href="#a"/><g mask="url(#b)"><path fill="url(#c)" d="M256.161 3.236C232.501 9.096 231 8.992 231 35.679c0 26.687 19.826 31.45 29.512 31.45h105.927v-65c-57.745-3.17-94.504-2.8-110.278 1.107z" transform="rotate(180 307.22 33.565)"/><path fill="url(#d)" d="M30.073 2.93C6.413 8.791.56 9.793.56 36.48c0 26.687 19.827 31.45 29.513 31.45H136v-65C81.155-.977 45.846-.977 30.073 2.93z" transform="matrix(1 0 0 -1 17 67.93)"/><g transform="translate(17)"><use fill="#000" filter="url(#e)" xlink:href="#f"/><use fill="#FFF" xlink:href="#f"/></g><g transform="translate(17)"><use fill="#000" filter="url(#g)" xlink:href="#h"/><use fill="url(#i)" xlink:href="#h"/></g></g><g mask="url(#b)"><g transform="rotate(45 29.408 156.817)"><use fill="#000" filter="url(#j)" xlink:href="#k"/><use fill="#FFF" xlink:href="#k"/></g><g transform="rotate(45 192.408 156.817)"><use fill="#000" filter="url(#l)" xlink:href="#m"/><use fill="#FFF" xlink:href="#m"/></g></g></g></svg>