<svg xmlns:xlink="http://www.w3.org/1999/xlink" xmlns="http://www.w3.org/2000/svg" aria-hidden="true" class="global-announcement__icon svg-icon svg-icon--small svg-icon--default svg-icon--icon" width="200"  height="200" ><defs><symbol xmlns="http://www.w3.org/2000/svg" viewBox="0 0 200 200" id="icon-notice-icon"><path d="M131.6 26.4c-1.3-.9-2.9-1.1-4.4-.6L29.3 62C13.1 62.1 0 73.9 0 88.4v23.1c0 14.5 13.1 26.3 29.2 26.4l98 36.1c.5.2 1.1.3 1.6.3 1 0 1.9-.3 2.7-.9 1.3-.9 2-2.3 2-3.9V30.4c.2-1.6-.6-3.1-1.9-4zM9.5 111.6V88.4c0-8.4 7.2-15.3 16.6-16.6v56.4c-9.4-1.3-16.6-8.3-16.6-16.6zm114.6 51.2l-88.5-32.6V69.8l88.5-32.6v125.6zM195.2 95.2h-36.5c-2.6 0-4.8 2.1-4.8 4.8 0 2.6 2.1 4.8 4.8 4.8h36.5c2.6 0 4.8-2.1 4.8-4.8 0-2.6-2.1-4.8-4.8-4.8zM153.7 127.5c-1.9-1.8-4.9-1.7-6.7.2-1.8 1.9-1.7 4.9.2 6.7l29.9 28c.9.9 2.1 1.3 3.3 1.3 1.3 0 2.5-.5 3.5-1.5 1.8-1.9 1.7-4.9-.2-6.7l-30-28zM150.5 73.7c1.2 0 2.3-.4 3.3-1.3l29.9-28c1.9-1.8 2-4.8.2-6.7-1.8-1.9-4.8-2-6.7-.2l-29.9 28c-1.9 1.8-2 4.8-.2 6.7.9 1 2.1 1.5 3.4 1.5z" class="st0"></path></symbol></defs><use xlink:href="#icon-notice-icon" fill="#32C5FF"></use> </svg>