<svg xmlns="http://www.w3.org/2000/svg" width="34" height="29" viewBox="0 0 34 29">
  <defs>
    <style>
      .cls-1 {
        fill: #e1eefa;
        fill-rule: evenodd;
      }
    </style>
  </defs>
  <path id="公告icon" class="cls-1" d="M586.574,674.255v5.273A2.413,2.413,0,0,1,584.092,682h-2.344a2.415,2.415,0,0,1-2.462-2.459q0-4.047,0-8.1a0.258,0.258,0,0,0-.314-0.316c-0.27-.006-0.54,0-0.809,0-0.944,0-1.89.019-2.832-.022a3.6,3.6,0,0,1-3.22-2.744,4.965,4.965,0,0,1-.105-0.98c-0.01-1.556,0-3.112,0-4.669a3.614,3.614,0,0,1,2.966-3.607,3.868,3.868,0,0,1,.737-0.062c1.045-.007,2.091,0,3.136-0.006a1.032,1.032,0,0,0,.373-0.073q7.061-2.922,14.116-5.851a1.208,1.208,0,0,1,1.74,1.147q0.006,4.418,0,8.834v10.379q0,1.216,0,2.435a1.212,1.212,0,0,1-1.732,1.147q-3.266-1.352-6.529-2.707C586.741,674.319,586.669,674.292,586.574,674.255Zm6.058-.117v-18.1c-0.076.029-.139,0.05-0.2,0.076q-6.3,2.613-12.61,5.223a1.7,1.7,0,0,1-.619.123c-1.158.012-2.316,0-3.474,0.006a1.21,1.21,0,0,0-1.3,1.291q0,2.326,0,4.652a1.212,1.212,0,0,0,1.307,1.3c1.146,0,2.293-.007,3.439.006a2.084,2.084,0,0,1,.669.133c0.432,0.157.852,0.346,1.277,0.522l9.638,4Zm-8.5,5.435c0-.057,0-0.1,0-0.134q0-3.031,0-6.062a0.176,0.176,0,0,0-.136-0.192c-0.717-.293-1.431-0.592-2.146-0.888a1.378,1.378,0,0,0-.133-0.043v7.319h2.407ZM606,665.633a9.421,9.421,0,0,1-4.115,7.342,1.171,1.171,0,0,1-1.332.1,1.149,1.149,0,0,1-.624-1.11,1.206,1.206,0,0,1,.555-0.968,7.211,7.211,0,0,0,.024-11.8,1.23,1.23,0,0,1-.579-0.99,1.215,1.215,0,0,1,1.944-1.012,13.89,13.89,0,0,1,1.4,1.2A9.919,9.919,0,0,1,606,665.633Zm-4.841-.555a4.863,4.863,0,0,1-3.25,4.564,1.216,1.216,0,0,1-1.459-.53,1.191,1.191,0,0,1,.243-1.511,1.438,1.438,0,0,1,.418-0.244,2.413,2.413,0,0,0,0-4.543,1.211,1.211,0,1,1,.879-2.255,4.769,4.769,0,0,1,3.091,3.785C601.13,664.585,601.135,664.833,601.159,665.078Z" transform="translate(-572 -653)"/>
</svg>
