<?xml version="1.0" encoding="utf-8"?>
<!-- Generator: Adobe Illustrator 21.1.0, SVG Export Plug-In . SVG Version: 6.00 Build 0)  -->
<svg version="1.1" id="圖層_1" xmlns="http://www.w3.org/2000/svg" xmlns:xlink="http://www.w3.org/1999/xlink" x="0px" y="0px"
	 viewBox="0 0 129 135" style="enable-background:new 0 0 129 135;" xml:space="preserve">
<style type="text/css">
	.st0{fill:url(#形狀_15_1_);}
</style>
<linearGradient id="形狀_15_1_" gradientUnits="userSpaceOnUse" x1="-4.117434e-03" y1="67.4909" x2="129.0168" y2="67.4909">
	<stop  offset="0" style="stop-color:#FFA574"/>
	<stop  offset="1" style="stop-color:#FF8181"/>
</linearGradient>
<path id="形狀_15" class="st0" d="M127,81.8c-3.2-3.9-8.9-4.6-12.8-1.5l-25.9,20.1c-1.3,1-2.9,1.5-4.5,1.5l-18.6,0
	c-2.5,0-4.5-2-4.5-4.5c0-2.5,2-4.5,4.5-4.5l15.6,0c5,0.1,9.1-3.9,9.2-8.9S86,74.8,81,74.8c-0.1,0-0.2,0-0.3,0l-17.2,0l-11.8,0
	l-6.6,0h-2.4c-4.9,0-9.7,1.6-13.6,4.6l-12.7,9.9c-0.8,0.6-0.9,1.7-0.3,2.5c0,0,0,0,0,0l24.7,30.9c0.3,0.4,0.9,0.7,1.4,0.7l29.9,0.2
	l8.3,0.1c5,0,9.9-1.6,13.8-4.7l31.3-24.5c3.9-3,4.6-8.7,1.6-12.6C127.1,81.9,127.1,81.8,127,81.8z M9,97.5c-0.6-0.8-1.8-0.9-2.6-0.3
	l-5.7,4.5c-0.8,0.6-0.9,1.7-0.3,2.5c0,0,0,0,0,0l24.1,30.1c0.6,0.8,1.8,0.9,2.6,0.3l5.7-4.5c0.8-0.6,0.9-1.7,0.3-2.5c0,0,0,0,0,0
	L9,97.5z M79.3,0C61.7,0.2,47.7,14.6,47.9,32.2c0.2,17.6,14.6,31.7,32.2,31.5c17.4-0.2,31.5-14.4,31.5-31.8
	C111.5,14.2,97-0.1,79.3,0z M77.5,25.7l7.4,3.8c4.4,2.2,6.8,7,6,11.8c-0.6,3.7-3,6.8-6.4,8.3v1c0,2.5-2,4.6-4.6,4.6s-4.6-2-4.6-4.6
	v-0.7c-3.6-1.2-6.6-3.9-8.2-7.4c-1-2.3,0-4.9,2.3-5.9c0,0,0,0,0.1,0c2.3-1,5,0,6,2.3c0.8,1.7,2.5,2.8,4.4,2.6c1,0,1.8-0.7,1.9-1.7
	c0.2-1-0.3-1.9-1.2-2.3l-7.4-3.8c-4.5-2.2-6.9-7.2-5.9-12.1c0.7-4.2,3.9-7.6,8-8.6v-0.7c0-2.5,2-4.6,4.6-4.6s4.6,2,4.6,4.6v1.7
	c2.9,1.4,5.2,3.7,6.5,6.6c1,2.3,0,4.9-2.3,5.9c0,0,0,0-0.1,0c-2.3,1-5,0-6-2.3c-0.8-1.7-2.5-2.8-4.4-2.6c-0.9,0-1.7,0.7-1.9,1.7
	C76.2,24.3,76.7,25.3,77.5,25.7z"/>
</svg>
