<?xml version="1.0" encoding="utf-8"?>
<!-- Generator: Adobe Illustrator 21.1.0, SVG Export Plug-In . SVG Version: 6.00 Build 0)  -->
<svg version="1.1" id="圖層_1" xmlns="http://www.w3.org/2000/svg" xmlns:xlink="http://www.w3.org/1999/xlink" x="0px" y="0px"
	 viewBox="0 0 125 138" style="enable-background:new 0 0 125 138;" xml:space="preserve">
<style type="text/css">
	.st0{fill:url(#形狀_16_1_);}
</style>
<linearGradient id="形狀_16_1_" gradientUnits="userSpaceOnUse" x1="7.137673e-03" y1="68.9951" x2="125.0226" y2="68.9951">
	<stop  offset="0" style="stop-color:#FF9D9E"/>
	<stop  offset="1" style="stop-color:#FD79C5"/>
</linearGradient>
<path id="形狀_16" class="st0" d="M119,28.2C97,25.5,75.7,9.2,66.8,1.6c-2.5-2.1-6.2-2.1-8.7,0C49.3,9.2,28.1,25.5,6,28.2
	c-3.5,0.4-6.1,3.3-6,6.8c2.7,66.2,46.8,95.2,59.3,102.1c2,1.1,4.5,1.1,6.5,0c12.4-6.9,56.5-35.9,59.3-102.1
	C125.1,31.5,122.5,28.6,119,28.2z M62.5,101.8c-18.1-0.2-32.6-15.1-32.4-33.3c0.2-18.1,15.1-32.6,33.3-32.4
	C81.4,36.4,95.8,51,95.8,69C95.7,87.2,80.8,101.9,62.5,101.8z M77.2,52.4L57.4,72l-9.7-9.5l-6.9,6.8l9.7,9.5l7,6.9l6.9-6.8
	l19.8-19.6L77.2,52.4z"/>
</svg>
