<?xml version="1.0" encoding="utf-8"?>
<!-- Generator: Adobe Illustrator 21.1.0, SVG Export Plug-In . SVG Version: 6.00 Build 0)  -->
<svg version="1.1" id="圖層_1" xmlns="http://www.w3.org/2000/svg" xmlns:xlink="http://www.w3.org/1999/xlink" x="0px" y="0px"
	 viewBox="0 0 128 135" style="enable-background:new 0 0 128 135;" xml:space="preserve">
<style type="text/css">
	.st0{fill:url(#icon_1_);}
</style>
<linearGradient id="icon_1_" gradientUnits="userSpaceOnUse" x1="127" y1="67.4813" x2="4.9959" y2="67.4813">
	<stop  offset="0" style="stop-color:#FBCC70"/>
	<stop  offset="1" style="stop-color:#FEA86D"/>
</linearGradient>
<path id="icon" class="st0" d="M31.8,15.5c-9.1-3-12-5.9-15-15c-0.1-0.4-0.5-0.6-0.9-0.5c-0.2,0.1-0.4,0.2-0.5,0.5
	c-3,9.1-5.9,12-15,15C0.1,15.6-0.1,16,0,16.3c0.1,0.2,0.2,0.4,0.4,0.4c9.1,3,12,5.9,15,15c0.1,0.4,0.5,0.6,0.9,0.5
	c0.2-0.1,0.4-0.2,0.5-0.5c3-9.1,5.9-12,15-15c0.4-0.1,0.6-0.5,0.4-0.9C32.2,15.7,32,15.5,31.8,15.5z M125.9,58.7l-22.2-25.9
	c-1.7-1.9-4.1-3.1-6.6-3.1H34.4c-2.6,0-5,1.1-6.6,3.1L5.6,58.7c-2.8,3.3-2.8,8.1,0,11.4L59.1,132c3.2,3.7,8.7,4.1,12.3,0.9
	c0.3-0.3,0.6-0.6,0.9-0.9L125.9,70C128.7,66.8,128.7,61.9,125.9,58.7z M46.6,83.1c-0.2,0.5-0.7,0.8-1.2,0.6
	c-0.3-0.1-0.5-0.3-0.6-0.6c-4.2-12.7-8.3-16.9-21-21c-0.5-0.2-0.8-0.7-0.6-1.2c0.1-0.3,0.3-0.5,0.6-0.6c12.8-4.2,16.9-8.3,21-21
	c0.2-0.5,0.7-0.8,1.2-0.6c0.3,0.1,0.5,0.3,0.6,0.6c4.2,12.7,8.3,16.9,21,21c0.5,0.2,0.8,0.7,0.6,1.2c-0.1,0.3-0.3,0.5-0.6,0.6
	C54.9,66.3,50.8,70.4,46.6,83.1z M87.4,86.3c-6.2,2-8.2,4-10.2,10.2c-0.1,0.3-0.3,0.4-0.6,0.3c-0.2,0-0.3-0.2-0.3-0.3
	c-2-6.2-4-8.2-10.2-10.2c-0.2-0.1-0.4-0.3-0.3-0.6c0-0.1,0.2-0.3,0.3-0.3c6.2-2,8.2-4,10.2-10.2c0.1-0.3,0.3-0.4,0.6-0.3
	c0.1,0,0.3,0.2,0.3,0.3c2,6.2,4,8.2,10.2,10.2c0.2,0.1,0.4,0.3,0.3,0.6C87.6,86.1,87.5,86.2,87.4,86.3z"/>
</svg>
