<svg xmlns:xlink="http://www.w3.org/1999/xlink" xmlns="http://www.w3.org/2000/svg" data-v-677587a2="" aria-hidden="true" class="lock svg-icon" width="400"  height="400" ><defs><symbol xmlns="http://www.w3.org/2000/svg" viewBox="0 0 14 14" id="icon-lock-white">
    <g fill="none" fill-rule="evenodd">
        <g fill="none">
            <g fill="none">
                <g fill="none">
                    <g fill="none">
                        <path fill="#FFFFFF" d="M7 0c1.933 0 3.5 1.567 3.5 3.5V5h.5c1.105 0 2 .895 2 2v5c0 1.105-.895 2-2 2H3c-1.105 0-2-.895-2-2V7c0-1.105.895-2 2-2l.5-.001V3.5C3.5 1.567 5.067 0 7 0zm1.5 8.875h-3c-.345 0-.625.28-.625.625s.28.625.625.625h3c.345 0 .625-.28.625-.625s-.28-.625-.625-.625zM7 1C5.656 1 4.56 2.061 4.502 3.392L4.5 3.5v1.499L9.5 5V3.5C9.5 2.12 8.38 1 7 1z" transform="translate(-149.000000, -635.000000) translate(30.000000, 597.000000) translate(0.000000, 24.000000) translate(119.000000, 14.000000)"></path>
                    </g>
                </g>
            </g>
        </g>
    </g>
</symbol></defs><use xlink:href="#icon-lock-white" fill="#FFFFFF"></use></svg>