<svg width="69" height="24" viewBox="0 0 69 24" fill="none" xmlns="http://www.w3.org/2000/svg">
<mask id="mask0" mask-type="alpha" maskUnits="userSpaceOnUse" x="3" y="0" width="66" height="22">
<path d="M23.7891 11.9083C23.6202 12.8267 23.3336 13.7136 22.9291 14.569C22.5354 15.4154 22.0501 16.2122 21.4733 16.9595C20.8981 17.6979 20.2429 18.3731 19.5078 18.9854C18.7727 19.5977 17.9892 20.1244 17.1573 20.5656C16.3272 20.9978 15.4557 21.3309 14.5429 21.565C13.6285 21.8081 12.7044 21.9297 11.7706 21.9297C10.8368 21.9297 9.95741 21.8081 9.1324 21.565C8.31489 21.3309 7.56595 20.9978 6.88557 20.5656C6.216 20.1244 5.62625 19.5977 5.11631 18.9854C4.60637 18.3731 4.19499 17.6979 3.88218 16.9595C3.58017 16.2122 3.3834 15.4154 3.29186 14.569C3.21113 13.7136 3.25521 12.8267 3.4241 11.9083C3.59299 10.9899 3.8751 10.1031 4.27042 9.24769C4.6749 8.39232 5.16475 7.59548 5.73996 6.85716C6.32432 6.11884 6.98406 5.44355 7.71919 4.83128C8.45431 4.21902 9.23696 3.69679 10.0671 3.2646C10.9065 2.83242 11.7779 2.49927 12.6815 2.26517C13.596 2.02207 14.5201 1.90051 15.4539 1.90051C16.3877 1.90051 17.2671 2.02207 18.0921 2.26517C18.9187 2.49927 19.6677 2.83242 20.3389 3.2646C21.0101 3.69679 21.6007 4.21902 22.1107 4.83128C22.6206 5.44355 23.0274 6.11884 23.3311 6.85716C23.6347 7.59548 23.8269 8.39232 23.9076 9.24769C23.9975 10.1031 23.958 10.9899 23.7891 11.9083ZM19.8754 11.9083C20.0311 11.062 20.0128 10.2651 19.8207 9.51781C19.6302 8.76148 19.3016 8.1087 18.835 7.55946C18.3792 7.00122 17.7966 6.56003 17.0872 6.23589C16.387 5.91175 15.6066 5.74968 14.746 5.74968C13.8763 5.74968 13.0317 5.91175 12.2123 6.23589C11.3928 6.56003 10.6479 7.00122 9.97768 7.55946C9.30908 8.1087 8.74045 8.76148 8.27179 9.51781C7.80478 10.2651 7.49346 11.062 7.33781 11.9083C7.18217 12.7547 7.20042 13.5516 7.39257 14.2989C7.58637 15.0372 7.91574 15.6855 8.38069 16.2437C8.84563 16.802 9.42823 17.2432 10.1285 17.5673C10.8287 17.8914 11.6137 18.0535 12.4834 18.0535C13.344 18.0535 14.184 17.8914 15.0034 17.5673C15.8321 17.2432 16.5769 16.802 17.238 16.2437C17.9083 15.6855 18.4761 15.0372 18.9414 14.2989C19.4085 13.5516 19.7198 12.7547 19.8754 11.9083Z" fill="url(#paint0_linear)"/>
<path d="M43.7477 16.2842C43.6086 17.0406 43.3305 17.7564 42.9133 18.4317C42.4979 19.098 41.9883 19.6787 41.3845 20.1739C40.7899 20.6691 40.1228 21.0608 39.3832 21.3489C38.6528 21.6371 37.8985 21.7811 37.1203 21.7811C36.4245 21.7811 35.7778 21.6641 35.18 21.43C34.5838 21.1869 34.0671 20.8357 33.6297 20.3765C33.0326 20.8357 32.3912 21.1869 31.7057 21.43C31.031 21.6641 30.3411 21.7811 29.6362 21.7811C28.858 21.7811 28.1567 21.6371 27.5322 21.3489C26.9078 21.0608 26.3847 20.6691 25.9631 20.1739C25.5507 19.6787 25.2592 19.098 25.0888 18.4317C24.92 17.7564 24.9052 17.0406 25.0443 16.2842L26.7381 7.07325H30.487L28.7932 16.2842C28.7468 16.5364 28.7487 16.775 28.7989 17.0001C28.8598 17.2161 28.957 17.4097 29.0903 17.5808C29.2345 17.7429 29.4073 17.8734 29.6088 17.9725C29.8211 18.0625 30.0554 18.1075 30.3118 18.1075C30.5681 18.1075 30.819 18.0625 31.0644 17.9725C31.3115 17.8734 31.5369 17.7429 31.7407 17.5808C31.9461 17.4097 32.1144 17.2161 32.2457 17.0001C32.3878 16.775 32.482 16.5364 32.5284 16.2842L34.2222 7.07325H37.9574L36.2636 16.2842C36.2172 16.5364 36.2237 16.775 36.283 17.0001C36.344 17.2161 36.4411 17.4097 36.5744 17.5808C36.7186 17.7429 36.8914 17.8734 37.0929 17.9725C37.3052 18.0625 37.5395 18.1075 37.7959 18.1075C38.0522 18.1075 38.3031 18.0625 38.5485 17.9725C38.7956 17.8734 39.0164 17.7429 39.211 17.5808C39.4164 17.4097 39.5894 17.2161 39.7298 17.0001C39.8719 16.775 39.9661 16.5364 40.0125 16.2842L41.7064 7.07325H45.4415L43.7477 16.2842Z" fill="url(#paint1_linear)"/>
<path d="M49.2819 21.511H45.5055L48.1655 7.04624H51.9419L49.2819 21.511Z" fill="url(#paint2_linear)"/>
<path d="M55.9009 21.511H52.1519L54.8119 7.04624H55.7183L56.6959 8.45085C57.3995 7.91062 58.1577 7.49644 58.9705 7.20831C59.7942 6.91118 60.6225 6.76262 61.4556 6.76262C62.3528 6.76262 63.1682 6.93369 63.9017 7.27584C64.6369 7.60898 65.2474 8.07269 65.7332 8.66694C66.2207 9.2522 66.5609 9.94099 66.7539 10.7333C66.9577 11.5167 66.9777 12.354 66.8138 13.2454L65.2938 21.511H61.5449L63.0649 13.2454C63.1344 12.8673 63.1266 12.5116 63.0413 12.1785C62.9578 11.8363 62.811 11.5392 62.601 11.2871C62.3911 11.035 62.13 10.8369 61.8177 10.6928C61.5055 10.5488 61.1571 10.4767 60.7726 10.4767C60.379 10.4767 59.9949 10.5488 59.6206 10.6928C59.2462 10.8369 58.9076 11.035 58.6049 11.2871C58.3022 11.5392 58.0462 11.8363 57.8368 12.1785C57.6291 12.5116 57.4904 12.8673 57.4209 13.2454L55.9009 21.511Z" fill="url(#paint3_linear)"/>
<path d="M12.1999 17.2458C9.26293 17.2458 7.44752 14.9331 8.14511 12.0801C8.8427 9.22712 11.7891 6.91434 14.7261 6.91434C17.6631 6.91434 19.4786 9.22712 18.781 12.0801C18.0834 14.9331 15.137 17.2458 12.1999 17.2458ZM17.6647 10.051C17.6528 10.0509 17.6412 10.0497 17.63 10.0474L16.7407 9.84051L15.8519 9.633C15.8166 9.62479 15.7892 9.60317 15.7752 9.57248L15.3735 8.83659L14.9686 8.0939C14.9588 8.07607 14.9541 8.05535 14.9548 8.03331C14.9554 8.01126 14.9615 7.98847 14.9725 7.96664C14.9835 7.94482 14.9992 7.92453 15.0183 7.9073C15.0375 7.89007 15.0596 7.87636 15.083 7.8672L15.0825 7.86661L15.7211 7.61511L15.9181 7.53777C15.0576 7.28116 14.0733 7.29585 13.0892 7.57998L13.1061 7.58559L13.6609 7.7748C13.6967 7.78699 13.7224 7.81357 13.7324 7.84875C13.7424 7.88393 13.7359 7.92484 13.7144 7.96254C13.7069 7.97509 13.6979 7.98701 13.6875 7.99796L12.9958 8.79349L12.3003 9.59344C12.2743 9.62308 12.24 9.6455 12.2034 9.65691L11.218 9.96213L10.2329 10.2662C10.2092 10.2737 10.1851 10.2762 10.1627 10.2736C10.1402 10.271 10.1199 10.2633 10.1033 10.2511C10.0866 10.239 10.0742 10.2226 10.0668 10.2033C10.0593 10.184 10.0572 10.1623 10.0605 10.1398L10.1474 9.5285L10.1734 9.34785C9.54645 9.99234 9.06821 10.741 8.78251 11.5251C8.69034 11.7778 8.61841 12.0334 8.56745 12.2891L8.68675 12.1604L9.1612 11.6479C9.17849 11.629 9.19929 11.6132 9.22203 11.6016C9.24477 11.5901 9.26885 11.5831 9.29244 11.5812C9.31602 11.5793 9.33849 11.5825 9.35814 11.5906C9.37778 11.5988 9.39409 11.6116 9.4058 11.6282L9.89858 12.3109L10.3902 12.9937C10.4098 13.0203 10.4155 13.0542 10.4087 13.0881L10.2383 14.02L10.0679 14.954C10.0637 14.9775 10.0537 15.0011 10.0388 15.0227C10.0239 15.0444 10.0044 15.0635 9.98204 15.0785C9.95966 15.0936 9.93499 15.1041 9.91004 15.1092C9.88509 15.1144 9.86058 15.114 9.83851 15.1081L9.2532 15.0051L8.91581 14.9457L8.94629 15.0001C9.41906 15.8345 10.2234 16.4215 11.2281 16.6655L11.081 16.3809L10.8261 15.8874C10.8167 15.8694 10.8123 15.8487 10.8133 15.8266C10.8143 15.8046 10.8206 15.7819 10.8319 15.7603C10.8431 15.7386 10.8589 15.7185 10.8781 15.7015C10.8974 15.6845 10.9195 15.6711 10.9429 15.6622L10.943 15.6616L11.9197 15.2938L12.8948 14.926C12.9329 14.9112 12.9722 14.9095 13.0051 14.921L13.8589 15.1863L14.7165 15.4532C14.7346 15.4587 14.7504 15.4679 14.7631 15.4802C14.7759 15.4925 14.7852 15.5078 14.7906 15.525C14.7961 15.5423 14.7975 15.5612 14.7948 15.5807C14.7921 15.6003 14.7854 15.62 14.775 15.6388C14.7682 15.6521 14.7595 15.6647 14.7492 15.6763L14.308 16.2029L14.0529 16.5093C14.5817 16.3366 15.0971 16.0893 15.5794 15.7767C16.1304 15.4218 16.6298 14.9872 17.0529 14.4944L16.8861 14.544L16.2388 14.7394C16.197 14.7518 16.1556 14.7489 16.1234 14.7314C16.0911 14.7138 16.0708 14.683 16.0666 14.6455C16.0664 14.6344 16.0668 14.6232 16.0679 14.6119L16.2086 13.6797L16.3492 12.7478C16.3546 12.7131 16.3725 12.6784 16.3999 12.6498L17.1342 11.8788L17.8685 11.1077C17.8863 11.0893 17.9074 11.074 17.9303 11.063C17.9532 11.052 17.9773 11.0456 18.0008 11.0442C18.0242 11.0427 18.0465 11.0464 18.0659 11.0548C18.0853 11.0633 18.1013 11.0763 18.1128 11.093L18.1129 11.0924L18.4261 11.5479L18.4287 11.552C18.542 10.6902 18.4008 9.87158 18.0206 9.18697L17.998 9.28556L17.8536 9.89984C17.8492 9.9195 17.8408 9.93904 17.8289 9.95732C17.817 9.9756 17.8018 9.99226 17.7842 10.0063C17.7666 10.0204 17.747 10.0316 17.7265 10.0393C17.706 10.0469 17.685 10.0509 17.6647 10.051ZM15.3205 12.6327L14.2777 13.3069L13.2333 13.9814C13.2016 14.0019 13.1659 14.0132 13.1318 14.0136C13.0976 14.014 13.067 14.0034 13.0447 13.9834L12.2673 13.3848L11.4828 12.7817C11.46 12.7641 11.4456 12.7387 11.4417 12.709C11.4378 12.6792 11.4445 12.6468 11.4609 12.6164L12.0192 11.5697L12.5776 10.5227C12.594 10.4918 12.6197 10.4644 12.6506 10.4448C12.6816 10.4252 12.7163 10.4143 12.7495 10.4138L13.8757 10.3701L15.0052 10.3255C15.0388 10.3243 15.0694 10.3335 15.0924 10.3519C15.1154 10.3702 15.1296 10.3967 15.1328 10.4273L15.2713 11.4431L15.4114 12.4632C15.4153 12.4929 15.4086 12.5251 15.3923 12.5555C15.376 12.5858 15.3509 12.6126 15.3206 12.6321L15.3205 12.6327Z" fill="black"/>
<path d="M52.9277 4.07494C53.1197 3.77781 53.2471 3.45817 53.3101 3.11602C53.3713 2.78288 53.3606 2.46774 53.2779 2.17061C53.2061 1.86448 53.0756 1.60337 52.8864 1.38727C52.6989 1.16218 52.4612 0.986601 52.1731 0.860547C51.8958 0.725488 51.5832 0.657959 51.2353 0.657959C50.8874 0.657959 50.5455 0.725488 50.2094 0.860547C49.8841 0.986601 49.5863 1.16218 49.316 1.38727C49.0566 1.60337 48.83 1.86448 48.6364 2.17061C48.4536 2.46774 48.3316 2.78288 48.2703 3.11602C48.2074 3.45817 48.2127 3.77781 48.2862 4.07494C48.3689 4.37207 48.4994 4.63318 48.6777 4.85828C48.8668 5.07437 49.1001 5.24995 49.3773 5.38501C49.6654 5.51106 49.9834 5.57409 50.3313 5.57409C50.6792 5.57409 51.0158 5.51106 51.341 5.38501C51.6772 5.24995 51.9795 5.07437 52.2481 4.85828C52.5184 4.63318 52.7449 4.37207 52.9277 4.07494Z" fill="url(#paint4_linear)"/>
<path d="M56.7837 5.92096C56.4381 5.92096 56.1476 5.84556 55.9121 5.69474C55.6789 5.54393 55.5157 5.33008 55.4224 5.05321C55.3292 4.77634 55.3161 4.45558 55.3831 4.09092L55.6309 2.74371C55.6979 2.37905 55.829 2.05829 56.0241 1.78142C56.2192 1.50455 56.4611 1.29071 56.7497 1.13989C57.0411 0.986827 57.3596 0.910294 57.7052 0.910294C57.9912 0.910294 58.2433 0.97107 58.4612 1.09262C58.6796 1.21192 58.8486 1.38187 58.9683 1.60247C59.0902 1.82306 59.1531 2.07855 59.1569 2.36893H58.4394C58.424 2.21586 58.3758 2.07968 58.2948 1.96037C58.2164 1.83882 58.1146 1.74541 57.9893 1.68013C57.864 1.61485 57.7281 1.58221 57.5816 1.58221C57.3779 1.58221 57.1905 1.63061 57.0193 1.7274C56.8482 1.82419 56.7041 1.96037 56.5872 2.13595C56.4706 2.30927 56.391 2.51186 56.3484 2.74371L56.1006 4.09092C56.0584 4.32052 56.0635 4.52311 56.1159 4.69868C56.1683 4.87426 56.2623 5.01044 56.3978 5.10724C56.5338 5.20178 56.7036 5.24905 56.9073 5.24905C57.056 5.24905 57.2035 5.21866 57.3497 5.15788C57.4982 5.09711 57.6338 5.00707 57.7565 4.88777C57.8814 4.76846 57.9807 4.62665 58.0544 4.46233H58.7719C58.6613 4.75271 58.5045 5.00819 58.3014 5.22879C58.0983 5.44938 57.8655 5.62046 57.6028 5.74201C57.3405 5.86131 57.0675 5.92096 56.7837 5.92096Z" fill="url(#paint5_linear)"/>
<path d="M61.0167 5.92096C60.6688 5.92096 60.3758 5.84668 60.1376 5.69812C59.8999 5.5473 59.7328 5.33571 59.6364 5.06334C59.5427 4.78872 59.529 4.47134 59.5952 4.11118L59.851 2.72008C59.9173 2.35992 60.0475 2.04366 60.2418 1.77129C60.4388 1.49667 60.6837 1.28508 60.9765 1.13652C61.2697 0.985701 61.5903 0.910294 61.9381 0.910294C62.286 0.910294 62.5788 0.985701 62.8166 1.13652C63.0548 1.28508 63.2207 1.49667 63.3144 1.77129C63.4108 2.04366 63.4259 2.35992 63.3596 2.72008L63.1038 4.11118C63.0376 4.47134 62.906 4.78872 62.709 5.06334C62.5147 5.33571 62.271 5.5473 61.9777 5.69812C61.6849 5.84668 61.3646 5.92096 61.0167 5.92096ZM61.1415 5.24229C61.3475 5.24229 61.5366 5.19728 61.7088 5.10724C61.8837 5.01495 62.0288 4.88552 62.1441 4.71894C62.2621 4.55012 62.3414 4.35541 62.382 4.13482L62.6465 2.69644C62.687 2.47585 62.6791 2.28226 62.6228 2.11569C62.5692 1.94687 62.4717 1.81744 62.3303 1.7274C62.1916 1.63511 62.0193 1.58896 61.8133 1.58896C61.6074 1.58896 61.4169 1.63511 61.242 1.7274C61.0698 1.81744 60.9247 1.94687 60.8067 2.11569C60.6914 2.28226 60.6135 2.47585 60.5729 2.69644L60.3084 4.13482C60.2678 4.35541 60.2743 4.55012 60.328 4.71894C60.3843 4.88552 60.4818 5.01495 60.6205 5.10724C60.7618 5.19728 60.9355 5.24229 61.1415 5.24229Z" fill="url(#paint6_linear)"/>
<path d="M68.335 0.960941H68.9907L68.0879 5.87032H67.4047L68.0809 2.19335L68.0754 2.40944L66.3354 5.18827H65.8479L65.1174 2.47697L65.2039 2.19335L64.5278 5.87032H63.8446L64.7474 0.960941H65.4031L66.273 4.20234L68.335 0.960941Z" fill="url(#paint7_linear)"/>
</mask>
<g mask="url(#mask0)">
<rect x="-3.75385" y="-6.22409" width="76.3279" height="36.287" fill="white"/>
</g>
<defs>
<linearGradient id="paint0_linear" x1="37.0823" y1="1.90051" x2="37.0823" y2="21.9297" gradientUnits="userSpaceOnUse">
<stop stop-color="#EBC28C"/>
<stop offset="1" stop-color="#D9A972"/>
</linearGradient>
<linearGradient id="paint1_linear" x1="37.0823" y1="1.90051" x2="37.0823" y2="21.9297" gradientUnits="userSpaceOnUse">
<stop stop-color="#EBC28C"/>
<stop offset="1" stop-color="#D9A972"/>
</linearGradient>
<linearGradient id="paint2_linear" x1="37.0823" y1="1.90051" x2="37.0823" y2="21.9297" gradientUnits="userSpaceOnUse">
<stop stop-color="#EBC28C"/>
<stop offset="1" stop-color="#D9A972"/>
</linearGradient>
<linearGradient id="paint3_linear" x1="37.0823" y1="1.90051" x2="37.0823" y2="21.9297" gradientUnits="userSpaceOnUse">
<stop stop-color="#EBC28C"/>
<stop offset="1" stop-color="#D9A972"/>
</linearGradient>
<linearGradient id="paint4_linear" x1="51.2422" y1="0.657959" x2="51.2422" y2="5.57409" gradientUnits="userSpaceOnUse">
<stop stop-color="#EBC28C"/>
<stop offset="1" stop-color="#D9A972"/>
</linearGradient>
<linearGradient id="paint5_linear" x1="62.484" y1="0.910294" x2="62.484" y2="5.92096" gradientUnits="userSpaceOnUse">
<stop stop-color="#EBC28C"/>
<stop offset="1" stop-color="#D9A972"/>
</linearGradient>
<linearGradient id="paint6_linear" x1="62.484" y1="0.910294" x2="62.484" y2="5.92096" gradientUnits="userSpaceOnUse">
<stop stop-color="#EBC28C"/>
<stop offset="1" stop-color="#D9A972"/>
</linearGradient>
<linearGradient id="paint7_linear" x1="62.484" y1="0.910294" x2="62.484" y2="5.92096" gradientUnits="userSpaceOnUse">
<stop stop-color="#EBC28C"/>
<stop offset="1" stop-color="#D9A972"/>
</linearGradient>
</defs>
</svg>
