<svg xmlns:xlink="http://www.w3.org/1999/xlink" xmlns="http://www.w3.org/2000/svg" aria-hidden="true" class="toggle svg-icon svg-icon--small svg-icon--default svg-icon--icon" width="40"  height="24" ><defs><symbol xmlns="http://www.w3.org/2000/svg" viewBox="0 0 40 24" id="icon-toggle-icon"><path fill-rule="nonzero" d="M1.991 3.982h35.84a2.009 2.009 0 001.991-1.99A2.009 2.009 0 0037.832 0H1.991A2.009 2.009 0 000 1.991c0 1.086.905 1.991 1.991 1.991zm35.84 5.793H1.991A2.009 2.009 0 000 11.765c0 1.087.905 1.992 1.991 1.992h35.84a2.009 2.009 0 001.991-1.991 2.009 2.009 0 00-1.99-1.991zm0 9.774H1.991A2.009 2.009 0 000 21.54c0 1.086.905 1.991 1.991 1.991h35.84a2.009 2.009 0 001.991-1.99 2.009 2.009 0 00-1.99-1.992z"></path></symbol></defs><use xlink:href="#icon-toggle-icon" fill="#1b91ff"></use> </svg>