<svg xmlns:xlink="http://www.w3.org/1999/xlink" xmlns="http://www.w3.org/2000/svg" aria-hidden="true" class="svg-icon svg-icon--small svg-icon--default svg-icon--icon" width="28"  height="28" ><defs><symbol xmlns="http://www.w3.org/2000/svg" viewBox="0 0 24 24" id="icon-customer"><g fill-rule="nonzero"><path d="M8.738 3.02a8.522 8.522 0 016.457 0 8.29 8.29 0 012.636 1.735 8.055 8.055 0 011.777 2.572c.26.597.657 1.225.762 1.867 1.092.355 1.622 1.367 1.63 2.512v3.45a2.686 2.686 0 01-2.646 2.652c-.247.266-.517.523-.802.802a8.319 8.319 0 01-2.65 1.743 8.45 8.45 0 01-1.756.51 1.768 1.768 0 01-1.453.752H10.34a1.72 1.72 0 01-1.522-.845 1.71 1.71 0 010-1.737c.316-.537.899-.86 1.522-.845h2.356a1.762 1.762 0 011.572.95 6.535 6.535 0 003.426-1.833 2.63 2.63 0 01-1.125-2.147v-3.453c.01-1.18.493-2.185 1.63-2.51-.696-3.036-3.077-4.877-6.199-4.881-3.122-.004-5.493 1.818-6.198 4.853 1.168.305 1.623 1.335 1.633 2.54v3.455a2.715 2.715 0 01-2.718 2.65A2.715 2.715 0 012 15.162v-3.454a2.662 2.662 0 011.771-2.487c.104-.652.29-1.288.553-1.894a8.058 8.058 0 011.778-2.572 8.27 8.27 0 012.636-1.734zm10.547 7.626c-.591 0-1.074.47-1.086 1.06v3.456a1.084 1.084 0 002.171 0v-3.456a1.083 1.083 0 00-1.085-1.06zm-14.568 0c-.59 0-1.073.47-1.086 1.06v3.452a1.076 1.076 0 001.086 1.06 1.074 1.074 0 001.085-1.06v-3.452a1.083 1.083 0 00-1.085-1.06z"></path><path d="M13.954 13.744a.77.77 0 011.049 1.125c-1.945 1.815-4.038 1.815-5.948-.005a.77.77 0 011.062-1.114c1.317 1.256 2.485 1.256 3.837-.006z" opacity=".4"></path></g></symbol></defs><use xlink:href="#icon-customer" fill="#666666"></use> </svg>