<svg xmlns:xlink="http://www.w3.org/1999/xlink" xmlns="http://www.w3.org/2000/svg" aria-hidden="true" class="svg-icon svg-icon--small svg-icon--default svg-icon--icon" width="28"  height="28" ><defs><symbol xmlns="http://www.w3.org/2000/svg" viewBox="0 0 28 28" id="icon-sports-icon"><path d="M13.997 1c3.327 0 6.654 1.266 9.195 3.806 5.077 5.075 5.077 13.307 0 18.385C20.654 25.731 17.327 27 14 27s-6.654-1.27-9.192-3.809C-.27 18.116-.27 9.884 4.808 4.806A12.943 12.943 0 0113.997 1zm.056 22.862l-1.862 1.444a11.5 11.5 0 003.683-.011l-1.821-1.433zm-4.225-7.487l-3.515 1.409-1.055 3.611c.205.241.42.475.645.7a11.38 11.38 0 004.369 2.733l2.983-2.329v-3.527l-3.427-2.597zm8.464-.078l-3.486 2.642v3.541l2.965 2.33a11.357 11.357 0 004.319-2.714c.38-.38.73-.782 1.049-1.204l-1.213-3.39-3.634-1.205zm-15.474.169a11.414 11.414 0 001.296 3.316l.638-2.184zm22.453-.482l-1.8 1.192.721 2.036a11.464 11.464 0 001.079-3.228zm-9.3-4.858h-3.93l-1.253 4.029 3.218 2.44 3.218-2.44-1.253-4.03zM4.717 7.294a11.424 11.424 0 00-2.154 7.221L5.72 16.35l3.511-1.407 1.411-4.535-2.188-2.989zm18.514-.062l-3.657.153-2.19 3.061 1.362 4.368 3.652 1.21 3.044-2.017c0-1.345-.229-2.653-.68-3.902l-.158-.414c-.355-.877-.815-1.7-1.373-2.46zm-9.234-4.68c-1.138 0-2.254.164-3.33.491l-.971 3.445 2.259 3.085H16.1l2.201-3.076-1.009-3.463a11.424 11.424 0 00-3.295-.482zM8.842 3.774a11.404 11.404 0 00-2.939 2.13l.121-.117 2.222.074zm10.276-.017l.598 2.057 2.194-.086c-.834-.8-1.77-1.46-2.792-1.97z"></path></symbol></defs><use xlink:href="#icon-sports-icon" fill="#1b91ff"></use> </svg>