<svg xmlns:xlink="http://www.w3.org/1999/xlink" xmlns="http://www.w3.org/2000/svg" aria-hidden="true" class="svg-icon svg-icon--small svg-icon--default svg-icon--icon" width="200"  height="200" ><defs><symbol xmlns="http://www.w3.org/2000/svg" viewBox="0 0 200 200" id="icon-wallet"><path d="M195.2 90.6H191V34.7c0-1.3-.5-2.5-1.4-3.4-.9-.9-2.1-1.4-3.4-1.4L19.6 30C8.8 30 0 38.8 0 49.6v100.8C0 161.2 8.8 170 19.6 170h166.7c2.6 0 4.8-2.1 4.8-4.8v-19.7h4.2c2.6 0 4.8-2.1 4.8-4.8V95.4c-.1-2.6-2.2-4.8-4.9-4.8zm-4.7 45.4h-33.3c-9.2 0-16.8-7.5-16.8-16.8v-2.4c0-9.2 7.5-16.8 16.8-16.8h33.3v36zm-9 24.5H19.6c-5.6 0-10.1-4.5-10.1-10.1V49.6c0-5.6 4.5-10.1 10.1-10.1l161.9-.1v17.4H27.2c-2.6 0-4.8 2.1-4.8 4.8 0 2.6 2.1 4.8 4.8 4.8h154.4v24.2h-24.4c-14.5 0-26.3 11.8-26.3 26.3v2.4c0 14.5 11.8 26.3 26.3 26.3h24.4v14.9z" class="st0"></path><circle cx="158.7" cy="118.1" r="9.5" class="st0"></circle></symbol></defs><use xlink:href="#icon-wallet" fill="#666666"></use> </svg>